<svg width="500" height="500" version="1.1" xmlns="http://www.w3.org/2000/svg" desc="Created with imagetracer.js version 1.2.6" ><path fill="rgb(7,0,0)" stroke="rgb(7,0,0)" stroke-width="1" opacity="0.01568627450980392" d="M 0 0 L 500 0 L 500 500 L 0 500 L 0 0 Z M 106 20 L 85 25 L 78 28 L 57 41 Q 28 63 20 105 L 20 396 Q 25 426 42 445 Q 54 459 72 469 L 92 477 L 107 480 L 394 480 L 409 477 L 425 471 L 445 458 L 465 436 L 476 413 L 480 397 L 480 105 Q 475 74 458 56 Q 437 27 395 20 L 106 20 Z " /><path fill="rgb(165,44,40)" stroke="rgb(165,44,40)" stroke-width="1" opacity="0.996078431372549" d="M 105.5 20 L 394.5 20 Q 436.6 27.4 458 55.5 Q 474.7 74.3 480 104.5 L 480 396.5 L 476 412.5 L 465 435.5 L 444.5 458 L 424.5 471 L 408.5 477 L 393.5 480 L 106.5 480 L 91.5 477 L 71.5 469 Q 54.1 459.5 42 444.5 Q 25.1 425.9 20 395.5 L 20 104.5 Q 28.5 63 56.5 41 L 77.5 28 L 84.5 25 L 105.5 20 Z M 110 21 L 90 25 L 79 29 L 58 42 Q 43 53 34 70 L 24 94 L 22 102 L 22 111 L 21 112 L 21 389 L 22 390 L 22 399 L 26 414 Q 32 430 42 443 Q 54 458 73 468 L 98 477 L 113 478 L 114 479 L 386 479 L 387 478 L 403 477 L 422 471 L 443 458 Q 459 445 469 426 L 475 411 L 479 391 L 479 112 L 478 111 L 478 102 L 472 82 L 458 58 Q 446 42 428 32 L 411 25 L 391 21 L 110 21 Z " /><path fill="rgb(165,44,40)" stroke="rgb(165,44,40)" stroke-width="1" opacity="0.996078431372549" d="M 156.5 298 L 157.5 300 L 156.5 298 Z " /><path fill="rgb(165,44,40)" stroke="rgb(165,44,40)" stroke-width="1" opacity="1" d="M 109.5 21 L 390.5 21 L 410.5 25 L 427.5 32 Q 445.5 41.9 458 57.5 L 472 81.5 L 478 101.5 L 478 110.5 L 479 111.5 L 479 390.5 L 475 410.5 L 469 425.5 Q 458.9 444.9 442.5 458 L 421.5 471 L 402.5 477 L 386.5 478 L 385.5 479 L 113.5 479 L 112.5 478 L 97.5 477 L 72.5 468 Q 54.4 458 42 442.5 Q 32.2 429.8 26 413.5 L 22 398.5 L 22 389.5 L 21 388.5 L 21 111.5 L 22 110.5 L 22 101.5 L 24 93.5 L 34 69.5 Q 43.2 53.2 57.5 42 L 78.5 29 L 89.5 25 L 109.5 21 Z M 350 183 L 350 226 L 324 226 L 324 241 L 350 241 L 350 242 L 350 319 L 370 319 L 370 184 L 370 183 L 350 183 Z M 136 189 L 136 236 L 173 236 L 173 247 L 173 247 L 121 247 L 121 262 L 123 263 L 244 263 L 244 248 L 244 247 L 192 247 L 192 237 L 193 236 L 230 236 L 230 220 L 156 220 L 155 220 L 155 206 L 157 204 L 229 204 L 229 190 L 229 189 L 136 189 Z M 289 193 L 287 195 L 287 226 Q 285 227 286 232 Q 282 251 271 264 Q 264 272 254 277 L 267 292 L 275 287 Q 291 275 298 253 Q 301 265 308 274 Q 315 285 329 289 L 338 277 L 339 273 L 331 269 Q 320 261 314 249 L 309 234 L 308 222 L 307 221 L 307 193 L 289 193 Z M 173 269 L 156 272 L 145 277 Q 137 281 135 290 Q 134 302 139 307 L 152 315 L 169 319 L 196 319 Q 197 317 203 318 Q 214 316 222 310 Q 227 306 229 300 Q 231 287 225 282 Q 217 274 205 271 L 193 270 L 192 269 L 173 269 Z " /><path fill="rgb(165,44,40)" stroke="rgb(165,44,40)" stroke-width="1" opacity="1" d="M 173.5 284 L 191.5 284 Q 192.8 286.3 197.5 285 L 204.5 287 L 209 291.5 Q 210 298 206.5 300 L 194.5 304 L 169.5 304 L 159.5 301 L 155 296.5 L 155 291.5 L 159.5 287 L 173.5 284 Z " /><path fill="rgb(234,207,206)" stroke="rgb(234,207,206)" stroke-width="1" opacity="0.996078431372549" d="M 350.5 183 L 351 224.5 L 350 224.5 L 350.5 183 Z " /><path fill="rgb(234,207,206)" stroke="rgb(234,207,206)" stroke-width="1" opacity="0.996078431372549" d="M 288.5 193 L 292 193.5 L 288 194 L 287.5 222 L 287 194.5 L 288.5 193 Z " /><path fill="rgb(234,207,206)" stroke="rgb(234,207,206)" stroke-width="1" opacity="0.996078431372549" d="M 303.5 193 L 307 193.5 L 303.5 194 L 303.5 193 Z " /><path fill="rgb(234,207,206)" stroke="rgb(234,207,206)" stroke-width="1" opacity="0.996078431372549" d="M 155.5 220 L 230 220.5 L 155.5 221 L 155.5 220 Z " /><path fill="rgb(234,207,206)" stroke="rgb(234,207,206)" stroke-width="1" opacity="0.996078431372549" d="M 307.5 221 L 308 225.5 L 307 225.5 L 307.5 221 Z " /><path fill="rgb(234,207,206)" stroke="rgb(234,207,206)" stroke-width="1" opacity="0.996078431372549" d="M 286.5 226 L 287 228.5 L 286 228.5 L 286.5 226 Z " /><path fill="rgb(234,207,206)" stroke="rgb(234,207,206)" stroke-width="1" opacity="0.996078431372549" d="M 324.5 226 L 325 240.5 L 324 240.5 L 324.5 226 Z " /><path fill="rgb(234,207,206)" stroke="rgb(234,207,206)" stroke-width="1" opacity="0.996078431372549" d="M 308.5 229 L 309 231.5 L 308 231.5 L 308.5 229 Z " /><path fill="rgb(234,207,206)" stroke="rgb(234,207,206)" stroke-width="1" opacity="0.996078431372549" d="M 136.5 235 L 172 235.5 L 136.5 236 L 136.5 235 Z " /><path fill="rgb(234,207,206)" stroke="rgb(234,207,206)" stroke-width="1" opacity="0.996078431372549" d="M 193.5 235 L 230 235.5 L 193.5 236 L 193.5 235 Z " /><path fill="rgb(234,207,206)" stroke="rgb(234,207,206)" stroke-width="1" opacity="0.996078431372549" d="M 350.5 241 L 351 318.5 L 350 318.5 L 350.5 241 Z " /><path fill="rgb(234,207,206)" stroke="rgb(234,207,206)" stroke-width="1" opacity="0.996078431372549" d="M 121.5 247 L 122 262 L 244 262.5 L 122.5 263 L 121 261.5 L 121.5 247 Z " /><path fill="rgb(234,207,206)" stroke="rgb(234,207,206)" stroke-width="1" opacity="0.996078431372549" d="M 316.5 253 L 317.5 255 L 316.5 253 Z " /><path fill="rgb(234,207,206)" stroke="rgb(234,207,206)" stroke-width="1" opacity="0.996078431372549" d="M 277.5 254 L 276.5 256 L 277.5 254 Z " /><path fill="rgb(234,207,206)" stroke="rgb(234,207,206)" stroke-width="1" opacity="0.996078431372549" d="M 318.5 256 L 319.5 258 L 318.5 256 Z " /><path fill="rgb(234,207,206)" stroke="rgb(234,207,206)" stroke-width="1" opacity="0.996078431372549" d="M 275.5 257 L 274.5 259 L 275.5 257 Z " /><path fill="rgb(234,207,206)" stroke="rgb(234,207,206)" stroke-width="1" opacity="0.996078431372549" d="M 273.5 260 L 271.5 263 L 273.5 260 Z " /><path fill="rgb(234,207,206)" stroke="rgb(234,207,206)" stroke-width="1" opacity="0.996078431372549" d="M 321.5 260 L 328.5 268 L 321.5 260 Z " /><path fill="rgb(234,207,206)" stroke="rgb(234,207,206)" stroke-width="1" opacity="0.996078431372549" d="M 302.5 264 L 303.5 266 L 302.5 264 Z " /><path fill="rgb(234,207,206)" stroke="rgb(234,207,206)" stroke-width="1" opacity="0.996078431372549" d="M 172.5 269 L 192 269.5 L 172.5 270 L 172.5 269 Z " /><path fill="rgb(234,207,206)" stroke="rgb(234,207,206)" stroke-width="1" opacity="0.996078431372549" d="M 264.5 269 L 262.5 272 L 264.5 269 Z " /><path fill="rgb(234,207,206)" stroke="rgb(234,207,206)" stroke-width="1" opacity="0.996078431372549" d="M 305.5 269 L 306.5 271 L 305.5 269 Z " /><path fill="rgb(234,207,206)" stroke="rgb(234,207,206)" stroke-width="1" opacity="0.996078431372549" d="M 164.5 270 L 167 270.5 L 164.5 271 L 164.5 270 Z " /><path fill="rgb(234,207,206)" stroke="rgb(234,207,206)" stroke-width="1" opacity="0.996078431372549" d="M 197.5 270 L 200 270.5 L 197.5 271 L 197.5 270 Z " /><path fill="rgb(234,207,206)" stroke="rgb(234,207,206)" stroke-width="1" opacity="0.996078431372549" d="M 260.5 272 L 259.5 274 L 260.5 272 Z " /><path fill="rgb(234,207,206)" stroke="rgb(234,207,206)" stroke-width="1" opacity="0.996078431372549" d="M 308.5 273 L 310.5 276 L 308.5 273 Z " /><path fill="rgb(234,207,206)" stroke="rgb(234,207,206)" stroke-width="1" opacity="0.996078431372549" d="M 255.5 275 L 255.5 278 Q 252.5 276.5 255.5 275 Z " /><path fill="rgb(234,207,206)" stroke="rgb(234,207,206)" stroke-width="1" opacity="0.996078431372549" d="M 285.5 275 L 283.5 278 L 285.5 275 Z " /><path fill="rgb(234,207,206)" stroke="rgb(234,207,206)" stroke-width="1" opacity="0.996078431372549" d="M 337.5 276 L 336.5 278 L 337.5 276 Z " /><path fill="rgb(234,207,206)" stroke="rgb(234,207,206)" stroke-width="1" opacity="0.996078431372549" d="M 144.5 277 L 143.5 279 L 144.5 277 Z " /><path fill="rgb(234,207,206)" stroke="rgb(234,207,206)" stroke-width="1" opacity="0.996078431372549" d="M 219.5 277 L 220.5 279 L 219.5 277 Z " /><path fill="rgb(234,207,206)" stroke="rgb(234,207,206)" stroke-width="1" opacity="0.996078431372549" d="M 223.5 280 L 224.5 282 L 223.5 280 Z " /><path fill="rgb(234,207,206)" stroke="rgb(234,207,206)" stroke-width="1" opacity="0.996078431372549" d="M 257.5 280 L 259.5 283 L 257.5 280 Z " /><path fill="rgb(234,207,206)" stroke="rgb(234,207,206)" stroke-width="1" opacity="0.996078431372549" d="M 334.5 280 L 332.5 283 L 334.5 280 Z " /><path fill="rgb(234,207,206)" stroke="rgb(234,207,206)" stroke-width="1" opacity="0.996078431372549" d="M 317.5 282 L 319.5 285 L 317.5 282 Z " /><path fill="rgb(234,207,206)" stroke="rgb(234,207,206)" stroke-width="1" opacity="0.996078431372549" d="M 138.5 283 L 137.5 285 L 138.5 283 Z " /><path fill="rgb(234,207,206)" stroke="rgb(234,207,206)" stroke-width="1" opacity="0.996078431372549" d="M 168.5 284 L 173 284.5 L 168.5 285 L 168.5 284 Z " /><path fill="rgb(234,207,206)" stroke="rgb(234,207,206)" stroke-width="1" opacity="0.996078431372549" d="M 192.5 284 L 196 284.5 L 192.5 285 L 192.5 284 Z " /><path fill="rgb(234,207,206)" stroke="rgb(234,207,206)" stroke-width="1" opacity="0.996078431372549" d="M 276.5 284 L 274.5 287 L 276.5 284 Z " /><path fill="rgb(234,207,206)" stroke="rgb(234,207,206)" stroke-width="1" opacity="0.996078431372549" d="M 331.5 284 L 329.5 287 L 331.5 284 Z " /><path fill="rgb(234,207,206)" stroke="rgb(234,207,206)" stroke-width="1" opacity="0.996078431372549" d="M 163.5 285 L 166 285.5 L 163.5 286 L 163.5 285 Z " /><path fill="rgb(234,207,206)" stroke="rgb(234,207,206)" stroke-width="1" opacity="0.996078431372549" d="M 198.5 285 L 201 285.5 L 198.5 286 L 198.5 285 Z " /><path fill="rgb(234,207,206)" stroke="rgb(234,207,206)" stroke-width="1" opacity="0.996078431372549" d="M 261.5 285 L 263.5 288 L 261.5 285 Z " /><path fill="rgb(234,207,206)" stroke="rgb(234,207,206)" stroke-width="1" opacity="0.996078431372549" d="M 321.5 285 L 322.5 287 L 321.5 285 Z " /><path fill="rgb(234,207,206)" stroke="rgb(234,207,206)" stroke-width="1" opacity="0.996078431372549" d="M 272.5 287 L 271.5 289 L 272.5 287 Z " /><path fill="rgb(234,207,206)" stroke="rgb(234,207,206)" stroke-width="1" opacity="0.996078431372549" d="M 157.5 288 L 155.5 291 L 157.5 288 Z " /><path fill="rgb(234,207,206)" stroke="rgb(234,207,206)" stroke-width="1" opacity="0.996078431372549" d="M 206.5 288 L 208.5 291 L 206.5 288 Z " /><path fill="rgb(234,207,206)" stroke="rgb(234,207,206)" stroke-width="1" opacity="0.996078431372549" d="M 228.5 288 L 229 290.5 L 228 290.5 L 228.5 288 Z " /><path fill="rgb(234,207,206)" stroke="rgb(234,207,206)" stroke-width="1" opacity="0.996078431372549" d="M 135.5 289 L 136 291.5 L 135 291.5 L 135.5 289 Z " /><path fill="rgb(234,207,206)" stroke="rgb(234,207,206)" stroke-width="1" opacity="0.996078431372549" d="M 265.5 290 L 266.5 292 L 265.5 290 Z " /><path fill="rgb(234,207,206)" stroke="rgb(234,207,206)" stroke-width="1" opacity="0.996078431372549" d="M 154.5 292 L 155 295.5 L 154 295.5 L 154.5 292 Z " /><path fill="rgb(234,207,206)" stroke="rgb(234,207,206)" stroke-width="1" opacity="0.996078431372549" d="M 209.5 292 L 210 295.5 L 209 295.5 L 209.5 292 Z " /><path fill="rgb(234,207,206)" stroke="rgb(234,207,206)" stroke-width="1" opacity="0.996078431372549" d="M 227.5 301 L 228 302.5 L 226 303.5 L 227.5 301 Z " /><path fill="rgb(234,207,206)" stroke="rgb(234,207,206)" stroke-width="1" opacity="0.996078431372549" d="M 166.5 303 L 169 303.5 L 166.5 304 L 166.5 303 Z " /><path fill="rgb(234,207,206)" stroke="rgb(234,207,206)" stroke-width="1" opacity="0.996078431372549" d="M 195.5 303 L 198 303.5 L 195.5 304 L 195.5 303 Z " /><path fill="rgb(234,207,206)" stroke="rgb(234,207,206)" stroke-width="1" opacity="0.996078431372549" d="M 174.5 304 L 190 304.5 L 174.5 305 L 174.5 304 Z " /><path fill="rgb(234,207,206)" stroke="rgb(234,207,206)" stroke-width="1" opacity="0.996078431372549" d="M 225.5 305 L 221.5 310 L 225.5 305 Z " /><path fill="rgb(234,207,206)" stroke="rgb(234,207,206)" stroke-width="1" opacity="0.996078431372549" d="M 139.5 306 L 142.5 310 L 139.5 306 Z " /><path fill="rgb(234,207,206)" stroke="rgb(234,207,206)" stroke-width="1" opacity="0.996078431372549" d="M 144.5 310 L 145.5 312 L 144.5 310 Z " /><path fill="rgb(234,207,206)" stroke="rgb(234,207,206)" stroke-width="1" opacity="0.996078431372549" d="M 200.5 317 L 203 317.5 L 200.5 318 L 200.5 317 Z " /><path fill="rgb(234,207,206)" stroke="rgb(234,207,206)" stroke-width="1" opacity="0.996078431372549" d="M 168.5 318 L 173 318.5 L 168.5 319 L 168.5 318 Z " /><path fill="rgb(234,207,206)" stroke="rgb(234,207,206)" stroke-width="1" opacity="0.996078431372549" d="M 191.5 318 L 196 318.5 L 191.5 319 L 191.5 318 Z " /><path fill="rgb(254,254,254)" stroke="rgb(254,254,254)" stroke-width="1" opacity="1" d="M 351 183 L 369.5 183 L 370 183.5 L 370 319 L 351 319 L 351 241.5 L 350.5 241 L 325 241 L 325 226 L 349.5 226 L 351 224.5 L 351 183 Z " /><path fill="rgb(254,254,254)" stroke="rgb(254,254,254)" stroke-width="1" opacity="1" d="M 136 189 L 228.5 189 L 229 189.5 L 229 204 L 155.5 204 L 155 204.5 L 155 221 L 229.5 221 L 230 221.5 L 230 235 L 193.5 235 L 192 236.5 L 192 246.5 L 192.5 247 L 242.5 247 L 244 248.5 L 244 262 L 122.5 262 L 122 261.5 L 122 247 L 172.5 247 L 173 246.5 L 173 236.5 L 171.5 235 L 136 235 L 136 189 Z " /><path fill="rgb(254,254,254)" stroke="rgb(254,254,254)" stroke-width="1" opacity="1" d="M 292.5 193 Q 301.8 192.2 307 194 L 307 225.5 L 310 239.5 Q 315.4 257.6 328.5 268 L 339 274.5 L 327.5 289 Q 317.6 284.4 311 276.5 Q 301.8 266.7 297.5 252 Q 291.3 271.8 277.5 284 L 266.5 291 L 255 276.5 Q 266.7 270.7 274 260.5 Q 282.5 249.5 286 233.5 L 287 222.5 L 288 221.5 L 288 194 L 292.5 193 Z " /><path fill="rgb(254,254,254)" stroke="rgb(254,254,254)" stroke-width="1" opacity="1" d="M 167.5 270 L 196.5 270 Q 197.8 272.3 202.5 271 Q 217.7 273.8 226 283.5 L 229 291.5 L 229 297.5 Q 226.5 306.5 219.5 311 L 208.5 316 L 199.5 318 L 173.5 319 L 172.5 318 L 159.5 317 L 150.5 314 Q 142.8 310.8 138 304.5 Q 134.8 300.2 135 292.5 L 137 285.5 L 142.5 279 L 151.5 274 L 167.5 270 Z M 169 284 L 158 288 L 154 293 L 155 298 L 163 303 L 174 304 L 175 305 L 198 304 L 206 301 L 210 296 L 209 291 L 201 285 L 196 284 L 169 284 Z " /></svg>
